<svg width="149" height="37" viewBox="0 0 149 37" fill="none" xmlns="http://www.w3.org/2000/svg">
<g clip-path="url(#clip0_162_2)">
<path d="M48.792 12.24C49.4427 12.3787 49.9653 12.704 50.36 13.216C50.7547 13.7173 50.952 14.2933 50.952 14.944C50.952 15.8827 50.6213 16.6293 49.96 17.184C49.3093 17.728 48.3973 18 47.224 18H41.992V6.768H47.048C48.1893 6.768 49.08 7.02933 49.72 7.552C50.3707 8.07467 50.696 8.784 50.696 9.68C50.696 10.3413 50.52 10.8907 50.168 11.328C49.8267 11.7653 49.368 12.0693 48.792 12.24ZM44.728 11.312H46.52C46.968 11.312 47.3093 11.216 47.544 11.024C47.7893 10.8213 47.912 10.528 47.912 10.144C47.912 9.76 47.7893 9.46667 47.544 9.264C47.3093 9.06133 46.968 8.96 46.52 8.96H44.728V11.312ZM46.744 15.792C47.2027 15.792 47.5547 15.6907 47.8 15.488C48.056 15.2747 48.184 14.9707 48.184 14.576C48.184 14.1813 48.0507 13.872 47.784 13.648C47.528 13.424 47.1707 13.312 46.712 13.312H44.728V15.792H46.744ZM51.9949 13.52C51.9949 12.6027 52.1655 11.7973 52.5069 11.104C52.8589 10.4107 53.3335 9.87733 53.9309 9.504C54.5282 9.13067 55.1949 8.944 55.9309 8.944C56.5602 8.944 57.1095 9.072 57.5789 9.328C58.0589 9.584 58.4269 9.92 58.6829 10.336V9.072H61.4189V18H58.6829V16.736C58.4162 17.152 58.0429 17.488 57.5629 17.744C57.0935 18 56.5442 18.128 55.9149 18.128C55.1895 18.128 54.5282 17.9413 53.9309 17.568C53.3335 17.184 52.8589 16.6453 52.5069 15.952C52.1655 15.248 51.9949 14.4373 51.9949 13.52ZM58.6829 13.536C58.6829 12.8533 58.4909 12.3147 58.1069 11.92C57.7335 11.5253 57.2749 11.328 56.7309 11.328C56.1869 11.328 55.7229 11.5253 55.3389 11.92C54.9655 12.304 54.7789 12.8373 54.7789 13.52C54.7789 14.2027 54.9655 14.7467 55.3389 15.152C55.7229 15.5467 56.1869 15.744 56.7309 15.744C57.2749 15.744 57.7335 15.5467 58.1069 15.152C58.4909 14.7573 58.6829 14.2187 58.6829 13.536ZM68.8383 8.976C69.8836 8.976 70.7156 9.31733 71.3343 10C71.9636 10.672 72.2783 11.6 72.2783 12.784V18H69.5583V13.152C69.5583 12.5547 69.4036 12.0907 69.0943 11.76C68.7849 11.4293 68.3689 11.264 67.8463 11.264C67.3236 11.264 66.9076 11.4293 66.5983 11.76C66.2889 12.0907 66.1343 12.5547 66.1343 13.152V18H63.3983V9.072H66.1343V10.256C66.4116 9.86133 66.7849 9.552 67.2543 9.328C67.7236 9.09333 68.2516 8.976 68.8383 8.976ZM79.6355 18L76.9155 14.256V18H74.1795V6.16H76.9155V12.704L79.6195 9.072H82.9955L79.2835 13.552L83.0275 18H79.6355Z" fill="black"/>
<path d="M46.369 32.5L44.549 29.12H44.276V32.5H41.728V23.335H45.745C46.4817 23.335 47.1057 23.465 47.617 23.725C48.1283 23.9763 48.514 24.3273 48.774 24.778C49.034 25.22 49.164 25.7183 49.164 26.273C49.164 26.897 48.9907 27.4473 48.644 27.924C48.306 28.392 47.8077 28.7257 47.149 28.925L49.216 32.5H46.369ZM44.276 27.378H45.537C45.8837 27.378 46.1437 27.2957 46.317 27.131C46.4903 26.9663 46.577 26.728 46.577 26.416C46.577 26.1213 46.486 25.8917 46.304 25.727C46.1307 25.5537 45.875 25.467 45.537 25.467H44.276V27.378ZM57.2907 28.769C57.2907 28.9683 57.2777 29.1677 57.2517 29.367H52.4287C52.4547 29.7657 52.5631 30.0647 52.7537 30.264C52.9531 30.4547 53.2044 30.55 53.5077 30.55C53.9324 30.55 54.2357 30.3593 54.4177 29.978H57.1347C57.0221 30.4807 56.8011 30.9313 56.4717 31.33C56.1511 31.72 55.7437 32.0277 55.2497 32.253C54.7557 32.4783 54.2097 32.591 53.6117 32.591C52.8924 32.591 52.2511 32.4393 51.6877 32.136C51.1331 31.8327 50.6954 31.3993 50.3747 30.836C50.0627 30.2727 49.9067 29.6097 49.9067 28.847C49.9067 28.0843 50.0627 27.4257 50.3747 26.871C50.6867 26.3077 51.1201 25.8743 51.6747 25.571C52.2381 25.2677 52.8837 25.116 53.6117 25.116C54.3311 25.116 54.9681 25.2633 55.5227 25.558C56.0774 25.8527 56.5107 26.2773 56.8227 26.832C57.1347 27.378 57.2907 28.0237 57.2907 28.769ZM54.6907 28.132C54.6907 27.82 54.5867 27.5773 54.3787 27.404C54.1707 27.222 53.9107 27.131 53.5987 27.131C53.2867 27.131 53.0311 27.2177 52.8317 27.391C52.6324 27.5557 52.5024 27.8027 52.4417 28.132H54.6907ZM57.9175 28.847C57.9175 28.093 58.0735 27.4343 58.3855 26.871C58.6975 26.3077 59.1308 25.8743 59.6855 25.571C60.2488 25.2677 60.8901 25.116 61.6095 25.116C62.5368 25.116 63.3168 25.3717 63.9495 25.883C64.5821 26.3857 64.9895 27.092 65.1715 28.002H62.4675C62.3115 27.5253 62.0081 27.287 61.5575 27.287C61.2368 27.287 60.9811 27.4213 60.7905 27.69C60.6085 27.95 60.5175 28.3357 60.5175 28.847C60.5175 29.3583 60.6085 29.7483 60.7905 30.017C60.9811 30.2857 61.2368 30.42 61.5575 30.42C62.0168 30.42 62.3201 30.1817 62.4675 29.705H65.1715C64.9895 30.6063 64.5821 31.3127 63.9495 31.824C63.3168 32.3353 62.5368 32.591 61.6095 32.591C60.8901 32.591 60.2488 32.4393 59.6855 32.136C59.1308 31.8327 58.6975 31.3993 58.3855 30.836C58.0735 30.2727 57.9175 29.6097 57.9175 28.847ZM74.082 25.207L69.454 35.971H66.685L68.427 32.188L65.437 25.207H68.271L69.805 29.341L71.287 25.207H74.082ZM74.3325 28.847C74.3325 28.093 74.4885 27.4343 74.8005 26.871C75.1125 26.3077 75.5458 25.8743 76.1005 25.571C76.6638 25.2677 77.3052 25.116 78.0245 25.116C78.9518 25.116 79.7318 25.3717 80.3645 25.883C80.9972 26.3857 81.4045 27.092 81.5865 28.002H78.8825C78.7265 27.5253 78.4232 27.287 77.9725 27.287C77.6518 27.287 77.3962 27.4213 77.2055 27.69C77.0235 27.95 76.9325 28.3357 76.9325 28.847C76.9325 29.3583 77.0235 29.7483 77.2055 30.017C77.3962 30.2857 77.6518 30.42 77.9725 30.42C78.4318 30.42 78.7352 30.1817 78.8825 29.705H81.5865C81.4045 30.6063 80.9972 31.3127 80.3645 31.824C79.7318 32.3353 78.9518 32.591 78.0245 32.591C77.3052 32.591 76.6638 32.4393 76.1005 32.136C75.5458 31.8327 75.1125 31.3993 74.8005 30.836C74.4885 30.2727 74.3325 29.6097 74.3325 28.847ZM85.193 22.88V32.5H82.645V22.88H85.193ZM93.612 28.769C93.612 28.9683 93.599 29.1677 93.573 29.367H88.75C88.776 29.7657 88.8843 30.0647 89.075 30.264C89.2743 30.4547 89.5257 30.55 89.829 30.55C90.2537 30.55 90.557 30.3593 90.739 29.978H93.456C93.3433 30.4807 93.1223 30.9313 92.793 31.33C92.4723 31.72 92.065 32.0277 91.571 32.253C91.077 32.4783 90.531 32.591 89.933 32.591C89.2137 32.591 88.5723 32.4393 88.009 32.136C87.4543 31.8327 87.0167 31.3993 86.696 30.836C86.384 30.2727 86.228 29.6097 86.228 28.847C86.228 28.0843 86.384 27.4257 86.696 26.871C87.008 26.3077 87.4413 25.8743 87.996 25.571C88.5593 25.2677 89.205 25.116 89.933 25.116C90.6523 25.116 91.2893 25.2633 91.844 25.558C92.3987 25.8527 92.832 26.2773 93.144 26.832C93.456 27.378 93.612 28.0237 93.612 28.769ZM91.012 28.132C91.012 27.82 90.908 27.5773 90.7 27.404C90.492 27.222 90.232 27.131 89.92 27.131C89.608 27.131 89.3523 27.2177 89.153 27.391C88.9537 27.5557 88.8237 27.8027 88.763 28.132H91.012ZM110.052 23.335L107.803 32.5H104.67L103.409 26.884L102.122 32.5H98.989L96.766 23.335H99.522L100.588 29.601L102.031 23.335H104.826L106.23 29.549L107.296 23.335H110.052ZM110.717 28.847C110.717 28.093 110.852 27.4343 111.12 26.871C111.398 26.3077 111.77 25.8743 112.238 25.571C112.715 25.2677 113.244 25.116 113.824 25.116C114.327 25.116 114.76 25.2157 115.124 25.415C115.488 25.6143 115.77 25.883 115.969 26.221V25.207H118.517V32.5H115.969V31.486C115.77 31.824 115.484 32.0927 115.111 32.292C114.747 32.4913 114.318 32.591 113.824 32.591C113.244 32.591 112.715 32.4393 112.238 32.136C111.77 31.8327 111.398 31.3993 111.12 30.836C110.852 30.264 110.717 29.601 110.717 28.847ZM115.969 28.847C115.969 28.379 115.839 28.0107 115.579 27.742C115.328 27.4733 115.016 27.339 114.643 27.339C114.262 27.339 113.946 27.4733 113.694 27.742C113.443 28.002 113.317 28.3703 113.317 28.847C113.317 29.315 113.443 29.6877 113.694 29.965C113.946 30.2337 114.262 30.368 114.643 30.368C115.016 30.368 115.328 30.2337 115.579 29.965C115.839 29.6963 115.969 29.3237 115.969 28.847ZM123.076 32.591C122.418 32.591 121.828 32.4827 121.308 32.266C120.797 32.0407 120.39 31.7373 120.086 31.356C119.792 30.966 119.627 30.5283 119.592 30.043H122.062C122.097 30.277 122.205 30.459 122.387 30.589C122.569 30.719 122.795 30.784 123.063 30.784C123.271 30.784 123.436 30.7407 123.557 30.654C123.679 30.5673 123.739 30.4547 123.739 30.316C123.739 30.134 123.64 29.9997 123.44 29.913C123.241 29.8263 122.912 29.731 122.452 29.627C121.932 29.523 121.499 29.406 121.152 29.276C120.806 29.146 120.502 28.9337 120.242 28.639C119.991 28.3443 119.865 27.9457 119.865 27.443C119.865 27.0097 119.982 26.6197 120.216 26.273C120.45 25.9177 120.793 25.636 121.243 25.428C121.703 25.22 122.253 25.116 122.894 25.116C123.848 25.116 124.597 25.35 125.143 25.818C125.689 26.286 126.006 26.9013 126.092 27.664H123.791C123.748 27.43 123.644 27.2523 123.479 27.131C123.323 27.001 123.111 26.936 122.842 26.936C122.634 26.936 122.474 26.975 122.361 27.053C122.257 27.131 122.205 27.2393 122.205 27.378C122.205 27.5513 122.305 27.6857 122.504 27.781C122.704 27.8677 123.024 27.9587 123.466 28.054C123.995 28.1667 124.433 28.2923 124.779 28.431C125.135 28.5697 125.442 28.795 125.702 29.107C125.971 29.4103 126.105 29.8263 126.105 30.355C126.105 30.7797 125.98 31.161 125.728 31.499C125.486 31.837 125.135 32.1057 124.675 32.305C124.225 32.4957 123.692 32.591 123.076 32.591ZM131.661 30.329V32.5H130.556C128.693 32.5 127.761 31.577 127.761 29.731V27.326H126.864V25.207H127.761V23.439H130.322V25.207H131.648V27.326H130.322V29.77C130.322 29.9693 130.365 30.1123 130.452 30.199C130.547 30.2857 130.703 30.329 130.92 30.329H131.661ZM139.798 28.769C139.798 28.9683 139.785 29.1677 139.759 29.367H134.936C134.962 29.7657 135.07 30.0647 135.261 30.264C135.46 30.4547 135.711 30.55 136.015 30.55C136.439 30.55 136.743 30.3593 136.925 29.978H139.642C139.529 30.4807 139.308 30.9313 138.979 31.33C138.658 31.72 138.251 32.0277 137.757 32.253C137.263 32.4783 136.717 32.591 136.119 32.591C135.399 32.591 134.758 32.4393 134.195 32.136C133.64 31.8327 133.202 31.3993 132.882 30.836C132.57 30.2727 132.414 29.6097 132.414 28.847C132.414 28.0843 132.57 27.4257 132.882 26.871C133.194 26.3077 133.627 25.8743 134.182 25.571C134.745 25.2677 135.391 25.116 136.119 25.116C136.838 25.116 137.475 25.2633 138.03 25.558C138.584 25.8527 139.018 26.2773 139.33 26.832C139.642 27.378 139.798 28.0237 139.798 28.769ZM137.198 28.132C137.198 27.82 137.094 27.5773 136.886 27.404C136.678 27.222 136.418 27.131 136.106 27.131C135.794 27.131 135.538 27.2177 135.339 27.391C135.139 27.5557 135.009 27.8027 134.949 28.132H137.198Z" fill="#10D60C"/>
<path d="M37.2759 24.3425L33.005 31.7396C32.1679 33.2088 30.6134 33.9775 29.0417 33.875H25.625V37.2917L21.3542 29.6042L25.625 21.9167V25.3334H30.4425L26.65 18.7563L34.0471 14.4855L37.1221 19.8155C38.0104 21.1309 38.13 22.8905 37.2759 24.3425ZM15.7338 3.22754H24.2754C25.9496 3.22754 27.4017 4.20129 28.1021 5.60212L29.8104 8.57462L32.7659 6.86629L28.2559 14.4L19.4579 14.5538L22.4134 12.8455L20.0046 8.66004L16.2292 15.2371L8.81502 10.9663L11.89 5.63629C12.5904 4.21837 14.0425 3.22754 15.7338 3.22754ZM8.62711 31.7567L4.35627 24.3596C3.51919 22.9075 3.63877 21.165 4.51002 19.8496L6.21836 16.8942L3.26294 15.1859L12.0438 15.3225L16.5709 22.8734L13.6154 21.165L11.2067 25.3334H18.7917V33.875H12.6417C11.8413 33.933 11.0408 33.7651 10.3311 33.3907C9.62141 33.0162 9.03103 32.4501 8.62711 31.7567Z" fill="black"/>
</g>
<defs>
<clipPath id="clip0_162_2">
<rect width="149" height="37" fill="white"/>
</clipPath>
</defs>
</svg>
