<svg width="149" height="37" viewBox="0 0 149 37" fill="none" xmlns="http://www.w3.org/2000/svg">
<path d="M44.792 11.24C45.4427 11.3787 45.9653 11.704 46.36 12.216C46.7547 12.7173 46.952 13.2933 46.952 13.944C46.952 14.8827 46.6213 15.6293 45.96 16.184C45.3093 16.728 44.3973 17 43.224 17H37.992V5.768H43.048C44.1893 5.768 45.08 6.02933 45.72 6.552C46.3707 7.07467 46.696 7.784 46.696 8.68C46.696 9.34133 46.52 9.89067 46.168 10.328C45.8267 10.7653 45.368 11.0693 44.792 11.24ZM40.728 10.312H42.52C42.968 10.312 43.3093 10.216 43.544 10.024C43.7893 9.82133 43.912 9.528 43.912 9.144C43.912 8.76 43.7893 8.46667 43.544 8.264C43.3093 8.06133 42.968 7.96 42.52 7.96H40.728V10.312ZM42.744 14.792C43.2027 14.792 43.5547 14.6907 43.8 14.488C44.056 14.2747 44.184 13.9707 44.184 13.576C44.184 13.1813 44.0507 12.872 43.784 12.648C43.528 12.424 43.1707 12.312 42.712 12.312H40.728V14.792H42.744ZM47.9949 12.52C47.9949 11.6027 48.1655 10.7973 48.5069 10.104C48.8589 9.41067 49.3335 8.87733 49.9309 8.504C50.5282 8.13067 51.1949 7.944 51.9309 7.944C52.5602 7.944 53.1095 8.072 53.5789 8.328C54.0589 8.584 54.4269 8.92 54.6829 9.336V8.072H57.4189V17H54.6829V15.736C54.4162 16.152 54.0429 16.488 53.5629 16.744C53.0935 17 52.5442 17.128 51.9149 17.128C51.1895 17.128 50.5282 16.9413 49.9309 16.568C49.3335 16.184 48.8589 15.6453 48.5069 14.952C48.1655 14.248 47.9949 13.4373 47.9949 12.52ZM54.6829 12.536C54.6829 11.8533 54.4909 11.3147 54.1069 10.92C53.7335 10.5253 53.2749 10.328 52.7309 10.328C52.1869 10.328 51.7229 10.5253 51.3389 10.92C50.9655 11.304 50.7789 11.8373 50.7789 12.52C50.7789 13.2027 50.9655 13.7467 51.3389 14.152C51.7229 14.5467 52.1869 14.744 52.7309 14.744C53.2749 14.744 53.7335 14.5467 54.1069 14.152C54.4909 13.7573 54.6829 13.2187 54.6829 12.536ZM64.8383 7.976C65.8836 7.976 66.7156 8.31733 67.3343 9C67.9636 9.672 68.2783 10.6 68.2783 11.784V17H65.5583V12.152C65.5583 11.5547 65.4036 11.0907 65.0943 10.76C64.7849 10.4293 64.3689 10.264 63.8463 10.264C63.3236 10.264 62.9076 10.4293 62.5983 10.76C62.2889 11.0907 62.1343 11.5547 62.1343 12.152V17H59.3983V8.072H62.1343V9.256C62.4116 8.86133 62.7849 8.552 63.2543 8.328C63.7236 8.09333 64.2516 7.976 64.8383 7.976ZM75.6355 17L72.9155 13.256V17H70.1795V5.16H72.9155V11.704L75.6195 8.072H78.9955L75.2835 12.552L79.0275 17H75.6355Z" fill="black"/>
<path d="M42.369 31L40.549 27.62H40.276V31H37.728V21.835H41.745C42.4817 21.835 43.1057 21.965 43.617 22.225C44.1283 22.4763 44.514 22.8273 44.774 23.278C45.034 23.72 45.164 24.2183 45.164 24.773C45.164 25.397 44.9907 25.9473 44.644 26.424C44.306 26.892 43.8077 27.2257 43.149 27.425L45.216 31H42.369ZM40.276 25.878H41.537C41.8837 25.878 42.1437 25.7957 42.317 25.631C42.4903 25.4663 42.577 25.228 42.577 24.916C42.577 24.6213 42.486 24.3917 42.304 24.227C42.1307 24.0537 41.875 23.967 41.537 23.967H40.276V25.878ZM53.2907 27.269C53.2907 27.4683 53.2777 27.6677 53.2517 27.867H48.4287C48.4547 28.2657 48.5631 28.5647 48.7537 28.764C48.9531 28.9547 49.2044 29.05 49.5077 29.05C49.9324 29.05 50.2357 28.8593 50.4177 28.478H53.1347C53.0221 28.9807 52.8011 29.4313 52.4717 29.83C52.1511 30.22 51.7437 30.5277 51.2497 30.753C50.7557 30.9783 50.2097 31.091 49.6117 31.091C48.8924 31.091 48.2511 30.9393 47.6877 30.636C47.1331 30.3327 46.6954 29.8993 46.3747 29.336C46.0627 28.7727 45.9067 28.1097 45.9067 27.347C45.9067 26.5843 46.0627 25.9257 46.3747 25.371C46.6867 24.8077 47.1201 24.3743 47.6747 24.071C48.2381 23.7677 48.8837 23.616 49.6117 23.616C50.3311 23.616 50.9681 23.7633 51.5227 24.058C52.0774 24.3527 52.5107 24.7773 52.8227 25.332C53.1347 25.878 53.2907 26.5237 53.2907 27.269ZM50.6907 26.632C50.6907 26.32 50.5867 26.0773 50.3787 25.904C50.1707 25.722 49.9107 25.631 49.5987 25.631C49.2867 25.631 49.0311 25.7177 48.8317 25.891C48.6324 26.0557 48.5024 26.3027 48.4417 26.632H50.6907ZM53.9175 27.347C53.9175 26.593 54.0735 25.9343 54.3855 25.371C54.6975 24.8077 55.1308 24.3743 55.6855 24.071C56.2488 23.7677 56.8901 23.616 57.6095 23.616C58.5368 23.616 59.3168 23.8717 59.9495 24.383C60.5821 24.8857 60.9895 25.592 61.1715 26.502H58.4675C58.3115 26.0253 58.0081 25.787 57.5575 25.787C57.2368 25.787 56.9811 25.9213 56.7905 26.19C56.6085 26.45 56.5175 26.8357 56.5175 27.347C56.5175 27.8583 56.6085 28.2483 56.7905 28.517C56.9811 28.7857 57.2368 28.92 57.5575 28.92C58.0168 28.92 58.3201 28.6817 58.4675 28.205H61.1715C60.9895 29.1063 60.5821 29.8127 59.9495 30.324C59.3168 30.8353 58.5368 31.091 57.6095 31.091C56.8901 31.091 56.2488 30.9393 55.6855 30.636C55.1308 30.3327 54.6975 29.8993 54.3855 29.336C54.0735 28.7727 53.9175 28.1097 53.9175 27.347ZM70.082 23.707L65.454 34.471H62.685L64.427 30.688L61.437 23.707H64.271L65.805 27.841L67.287 23.707H70.082ZM70.3325 27.347C70.3325 26.593 70.4885 25.9343 70.8005 25.371C71.1125 24.8077 71.5458 24.3743 72.1005 24.071C72.6638 23.7677 73.3052 23.616 74.0245 23.616C74.9518 23.616 75.7318 23.8717 76.3645 24.383C76.9972 24.8857 77.4045 25.592 77.5865 26.502H74.8825C74.7265 26.0253 74.4232 25.787 73.9725 25.787C73.6518 25.787 73.3962 25.9213 73.2055 26.19C73.0235 26.45 72.9325 26.8357 72.9325 27.347C72.9325 27.8583 73.0235 28.2483 73.2055 28.517C73.3962 28.7857 73.6518 28.92 73.9725 28.92C74.4318 28.92 74.7352 28.6817 74.8825 28.205H77.5865C77.4045 29.1063 76.9972 29.8127 76.3645 30.324C75.7318 30.8353 74.9518 31.091 74.0245 31.091C73.3052 31.091 72.6638 30.9393 72.1005 30.636C71.5458 30.3327 71.1125 29.8993 70.8005 29.336C70.4885 28.7727 70.3325 28.1097 70.3325 27.347ZM81.193 21.38V31H78.645V21.38H81.193ZM89.612 27.269C89.612 27.4683 89.599 27.6677 89.573 27.867H84.75C84.776 28.2657 84.8843 28.5647 85.075 28.764C85.2743 28.9547 85.5257 29.05 85.829 29.05C86.2537 29.05 86.557 28.8593 86.739 28.478H89.456C89.3433 28.9807 89.1223 29.4313 88.793 29.83C88.4723 30.22 88.065 30.5277 87.571 30.753C87.077 30.9783 86.531 31.091 85.933 31.091C85.2137 31.091 84.5723 30.9393 84.009 30.636C83.4543 30.3327 83.0167 29.8993 82.696 29.336C82.384 28.7727 82.228 28.1097 82.228 27.347C82.228 26.5843 82.384 25.9257 82.696 25.371C83.008 24.8077 83.4413 24.3743 83.996 24.071C84.5593 23.7677 85.205 23.616 85.933 23.616C86.6523 23.616 87.2893 23.7633 87.844 24.058C88.3987 24.3527 88.832 24.7773 89.144 25.332C89.456 25.878 89.612 26.5237 89.612 27.269ZM87.012 26.632C87.012 26.32 86.908 26.0773 86.7 25.904C86.492 25.722 86.232 25.631 85.92 25.631C85.608 25.631 85.3523 25.7177 85.153 25.891C84.9537 26.0557 84.8237 26.3027 84.763 26.632H87.012ZM106.052 21.835L103.803 31H100.67L99.409 25.384L98.122 31H94.989L92.766 21.835H95.522L96.588 28.101L98.031 21.835H100.826L102.23 28.049L103.296 21.835H106.052ZM106.717 27.347C106.717 26.593 106.852 25.9343 107.12 25.371C107.398 24.8077 107.77 24.3743 108.238 24.071C108.715 23.7677 109.244 23.616 109.824 23.616C110.327 23.616 110.76 23.7157 111.124 23.915C111.488 24.1143 111.77 24.383 111.969 24.721V23.707H114.517V31H111.969V29.986C111.77 30.324 111.484 30.5927 111.111 30.792C110.747 30.9913 110.318 31.091 109.824 31.091C109.244 31.091 108.715 30.9393 108.238 30.636C107.77 30.3327 107.398 29.8993 107.12 29.336C106.852 28.764 106.717 28.101 106.717 27.347ZM111.969 27.347C111.969 26.879 111.839 26.5107 111.579 26.242C111.328 25.9733 111.016 25.839 110.643 25.839C110.262 25.839 109.946 25.9733 109.694 26.242C109.443 26.502 109.317 26.8703 109.317 27.347C109.317 27.815 109.443 28.1877 109.694 28.465C109.946 28.7337 110.262 28.868 110.643 28.868C111.016 28.868 111.328 28.7337 111.579 28.465C111.839 28.1963 111.969 27.8237 111.969 27.347ZM119.076 31.091C118.418 31.091 117.828 30.9827 117.308 30.766C116.797 30.5407 116.39 30.2373 116.086 29.856C115.792 29.466 115.627 29.0283 115.592 28.543H118.062C118.097 28.777 118.205 28.959 118.387 29.089C118.569 29.219 118.795 29.284 119.063 29.284C119.271 29.284 119.436 29.2407 119.557 29.154C119.679 29.0673 119.739 28.9547 119.739 28.816C119.739 28.634 119.64 28.4997 119.44 28.413C119.241 28.3263 118.912 28.231 118.452 28.127C117.932 28.023 117.499 27.906 117.152 27.776C116.806 27.646 116.502 27.4337 116.242 27.139C115.991 26.8443 115.865 26.4457 115.865 25.943C115.865 25.5097 115.982 25.1197 116.216 24.773C116.45 24.4177 116.793 24.136 117.243 23.928C117.703 23.72 118.253 23.616 118.894 23.616C119.848 23.616 120.597 23.85 121.143 24.318C121.689 24.786 122.006 25.4013 122.092 26.164H119.791C119.748 25.93 119.644 25.7523 119.479 25.631C119.323 25.501 119.111 25.436 118.842 25.436C118.634 25.436 118.474 25.475 118.361 25.553C118.257 25.631 118.205 25.7393 118.205 25.878C118.205 26.0513 118.305 26.1857 118.504 26.281C118.704 26.3677 119.024 26.4587 119.466 26.554C119.995 26.6667 120.433 26.7923 120.779 26.931C121.135 27.0697 121.442 27.295 121.702 27.607C121.971 27.9103 122.105 28.3263 122.105 28.855C122.105 29.2797 121.98 29.661 121.728 29.999C121.486 30.337 121.135 30.6057 120.675 30.805C120.225 30.9957 119.692 31.091 119.076 31.091ZM127.661 28.829V31H126.556C124.693 31 123.761 30.077 123.761 28.231V25.826H122.864V23.707H123.761V21.939H126.322V23.707H127.648V25.826H126.322V28.27C126.322 28.4693 126.365 28.6123 126.452 28.699C126.547 28.7857 126.703 28.829 126.92 28.829H127.661ZM135.798 27.269C135.798 27.4683 135.785 27.6677 135.759 27.867H130.936C130.962 28.2657 131.07 28.5647 131.261 28.764C131.46 28.9547 131.711 29.05 132.015 29.05C132.439 29.05 132.743 28.8593 132.925 28.478H135.642C135.529 28.9807 135.308 29.4313 134.979 29.83C134.658 30.22 134.251 30.5277 133.757 30.753C133.263 30.9783 132.717 31.091 132.119 31.091C131.399 31.091 130.758 30.9393 130.195 30.636C129.64 30.3327 129.202 29.8993 128.882 29.336C128.57 28.7727 128.414 28.1097 128.414 27.347C128.414 26.5843 128.57 25.9257 128.882 25.371C129.194 24.8077 129.627 24.3743 130.182 24.071C130.745 23.7677 131.391 23.616 132.119 23.616C132.838 23.616 133.475 23.7633 134.03 24.058C134.584 24.3527 135.018 24.7773 135.33 25.332C135.642 25.878 135.798 26.5237 135.798 27.269ZM133.198 26.632C133.198 26.32 133.094 26.0773 132.886 25.904C132.678 25.722 132.418 25.631 132.106 25.631C131.794 25.631 131.538 25.7177 131.339 25.891C131.139 26.0557 131.009 26.3027 130.949 26.632H133.198Z" fill="black"/>
<path d="M33.6392 23.7725L29.785 30.4479C29.0296 31.7738 27.6267 32.4675 26.2083 32.375H23.125V35.4584L19.2708 28.5209L23.125 21.5834V24.6667H27.4725L24.05 18.7313L30.7254 14.8771L33.5004 19.6871C34.3021 20.8742 34.41 22.4621 33.6392 23.7725ZM14.1987 4.71753H21.9071C23.4179 4.71753 24.7283 5.59628 25.3604 6.86045L26.9021 9.54295L29.5692 8.00128L25.4992 14.8L17.5596 14.9388L20.2267 13.3971L18.0529 9.62003L14.6458 15.5554L7.955 11.7013L10.73 6.89128C11.3621 5.6117 12.6725 4.71753 14.1987 4.71753ZM7.78541 30.4634L3.93125 23.7879C3.17583 22.4775 3.28375 20.905 4.07 19.7179L5.61166 17.0509L2.94458 15.5092L10.8687 15.6325L14.9542 22.4467L12.2871 20.905L10.1133 24.6667H16.9583V32.375H11.4083C10.6861 32.4273 9.96363 32.2759 9.32317 31.9379C8.68271 31.6 8.14993 31.0891 7.78541 30.4634Z" fill="black"/>
</svg>
